<?xml version="1.0" encoding="UTF-8"?>
<svg width="45px" height="69px" viewBox="0 0 45 69" version="1.1" xmlns="http://www.w3.org/2000/svg" xmlns:xlink="http://www.w3.org/1999/xlink">
    <title>pc-24-02-icon</title>
    <g id="product-page" stroke="none" stroke-width="1" fill="none" fill-rule="evenodd">
        <g id="realme-C53_PC_2560" transform="translate(-1781.000000, -20871.000000)" fill="#000000">
            <g id="pc-24-Function" transform="translate(0.000000, 19620.000000)">
                <g id="img" transform="translate(680.000000, 770.000000)">
                    <path d="M1141.23734,538.789709 C1143.17827,538.789709 1144.91575,539.694197 1145.87882,541.129781 L1146,541.320012 L1144.41772,542.1988 C1143.83228,541.153345 1142.62975,540.486679 1141.23734,540.486679 C1138.8481,540.486679 1137.26582,542.107891 1137.26582,544.289709 C1137.26582,546.471527 1138.8481,548.092739 1141.23734,548.092739 C1142.55239,548.092739 1143.71219,547.498089 1144.31686,546.551304 L1144.41772,546.380618 L1146,547.244254 C1145.08228,548.789709 1143.27848,549.789709 1141.23734,549.789709 C1137.86709,549.789709 1135.4462,547.365467 1135.4462,544.289709 C1135.4462,541.213951 1137.86709,538.789709 1141.23734,538.789709 Z M1105.35127,538.986679 C1108.40506,538.986679 1110.6519,541.320012 1110.6519,544.289709 C1110.6519,547.170391 1108.516,549.474936 1105.57877,549.588363 L1105.35127,549.592739 L1101,549.592739 L1101,538.986679 L1105.35127,538.986679 Z M1114.13291,538.986679 L1114.13291,549.592739 L1112.31329,549.592739 L1112.31329,538.986679 L1114.13291,538.986679 Z M1120.77848,538.986679 C1122.75633,538.986679 1124.33861,540.50183 1124.33861,542.39577 C1124.33861,543.694471 1123.52056,544.855744 1122.32185,545.395315 L1122.13924,545.471527 L1124.65506,549.592739 L1122.66139,549.592739 L1120.31962,545.729103 L1118.16772,545.729103 L1118.16772,549.592739 L1116.3481,549.592739 L1116.3481,538.986679 L1120.77848,538.986679 Z M1131.22152,538.986679 L1135.22468,549.592739 L1133.26266,549.592739 L1132.48734,547.456376 L1127.77215,547.456376 L1126.99684,549.592739 L1125.01899,549.592739 L1129.03797,538.986679 L1131.22152,538.986679 Z M1105.35127,540.653345 L1102.81962,540.653345 L1102.81962,547.926073 L1105.35127,547.926073 C1107.4557,547.926073 1108.89557,546.380618 1108.89557,544.289709 C1108.89557,542.183648 1107.4557,540.653345 1105.35127,540.653345 Z M1130.12975,541.032133 L1128.37342,545.820012 L1131.88608,545.820012 L1130.12975,541.032133 Z M1120.77848,540.623042 L1118.16772,540.623042 L1118.16772,544.168497 L1120.77848,544.168497 C1121.74367,544.168497 1122.51899,543.380618 1122.51899,542.39577 C1122.51899,541.39577 1121.74367,540.623042 1120.77848,540.623042 Z M1146,503.432863 L1145.99678,503.901795 C1145.78671,519.192115 1135.32155,531.540546 1122.36427,531.785986 L1121.97087,531.789709 L1121.97409,531.320777 C1122.18629,515.876009 1132.86179,503.432863 1146,503.432863 Z M1116.32012,481 C1123.68034,485.940217 1128.52427,494.339427 1128.52427,503.869997 L1128.52427,504.265437 C1128.52427,519.466673 1116.20124,531.789709 1101,531.789709 L1101,481.001 L1116.32012,481 Z M1122.8467,481.002314 C1135.52607,481.115817 1145.79284,491.009419 1145.9969,503.272165 L1145.997,503.431 L1145.61449,503.425451 C1133.1122,503.118261 1123.04976,493.300905 1122.84776,481.162025 L1122.8467,481.002314 Z" id="pc-24-02-icon"></path>
                </g>
            </g>
        </g>
    </g>
</svg>