<?xml version="1.0" encoding="UTF-8"?>
<svg width="64px" height="46px" viewBox="0 0 64 46" version="1.1" xmlns="http://www.w3.org/2000/svg" xmlns:xlink="http://www.w3.org/1999/xlink">
    <title>pc-14-icon</title>
    <g id="product-page" stroke="none" stroke-width="1" fill="none" fill-rule="evenodd">
        <g id="realme-C53_PC_2560" transform="translate(-680.000000, -11289.000000)" fill="#000000" fill-rule="nonzero">
            <g id="pc-14-RAM12GB" transform="translate(0.000000, 10970.000000)">
                <path d="M681.90099,351.070423 L681.90099,363.056338 L693.623762,363.056338 L693.623762,365 L680,365 L680,351.070423 L681.90099,351.070423 Z M744,351.070423 L744,365 L730.376238,365 L730.376238,363.056338 L742.09901,363.056338 L742.09901,351.070423 L744,351.070423 Z M733.507196,327.877193 C734.380586,327.877193 735.088608,328.591418 735.088608,329.47246 L735.088608,329.47246 L735.088608,353.720522 C735.088608,354.601564 734.380586,355.315789 733.507196,355.315789 L733.507196,355.315789 L690.492804,355.315789 C689.619414,355.315789 688.911392,354.601564 688.911392,353.720522 L688.911392,353.720522 L688.911392,329.47246 C688.911392,328.591418 689.619414,327.877193 690.492804,327.877193 L690.492804,327.877193 Z M733.190914,329.791514 L690.809086,329.791514 L690.809086,353.401469 L733.190914,353.401469 L733.190914,329.791514 Z M701.158954,335.140351 C704.637461,335.140351 707.196777,337.981053 707.196777,341.596491 C707.196777,345.113551 704.749944,347.925194 701.389474,348.048419 L701.158954,348.052632 L696.202532,348.052632 L696.202532,335.140351 L701.158954,335.140351 Z M714.135767,335.140351 C716.388686,335.140351 718.191022,336.984962 718.191022,339.290727 C718.191022,340.878697 717.251082,342.297897 715.875944,342.951029 L715.685776,343.035288 L718.551489,348.052632 L716.280546,348.052632 L713.61309,343.348872 L711.161914,343.348872 L711.161914,348.052632 L709.089229,348.052632 L709.089229,335.140351 L714.135767,335.140351 Z M727.707352,335.140351 L727.707352,337.169424 L722.210229,337.169424 L722.210229,340.526617 L727.256768,340.526617 L727.256768,342.537243 L722.210229,342.537243 L722.210229,346.023559 L727.797468,346.023559 L727.797468,348.052632 L720.137544,348.052632 L720.137544,335.140351 L727.707352,335.140351 Z M701.158954,337.169424 L698.275217,337.169424 L698.275217,346.023559 L701.158954,346.023559 C703.556059,346.023559 705.196184,344.142055 705.196184,341.596491 C705.196184,339.032481 703.556059,337.169424 701.158954,337.169424 Z M714.135767,337.132531 L711.161914,337.132531 L711.161914,341.448922 L714.135767,341.448922 C715.235192,341.448922 716.118336,340.489724 716.118336,339.290727 C716.118336,338.073283 715.235192,337.132531 714.135767,337.132531 Z M693.623762,319 L693.623762,320.943662 L681.90099,320.943662 L681.90099,332.929577 L680,332.929577 L680,319 L693.623762,319 Z M744,319 L744,332.929577 L742.09901,332.929577 L742.09901,320.943662 L730.376238,320.943662 L730.376238,319 L744,319 Z" id="pc-14-icon"></path>
            </g>
        </g>
    </g>
</svg>