<svg width="30" height="30" viewBox="0 0 30 30" fill="none" xmlns="http://www.w3.org/2000/svg">
<g id="ic_fire">
<path id="Vector" d="M15 25C19.1174 25 22.4999 21.7371 22.4999 17.5491C22.4999 16.5209 22.4477 15.4188 21.8778 13.7058C21.3079 11.9929 21.1931 11.7718 20.5905 10.714C20.333 12.8727 18.9555 13.7724 18.6055 14.0413C18.6055 13.7615 17.7722 10.6679 16.5088 8.81695C15.2685 7 13.5817 5.80796 12.5927 5C12.5927 6.53489 12.1609 8.81695 11.5427 9.9797C10.9244 11.1425 10.8083 11.1848 10.0361 12.0501C9.2639 12.9154 8.90945 13.1826 8.2637 14.2325C7.61798 15.2825 7.5 16.6809 7.5 17.7091C7.5 21.8971 10.8826 25 15 25Z" stroke="black" stroke-width="1.5" stroke-linejoin="round"/>
</g>
</svg>
