<?xml version="1.0" encoding="utf-8"?>
<!-- Generator: Adobe Illustrator 26.3.1, SVG Export Plug-In . SVG Version: 6.00 Build 0)  -->
<svg version="1.1" id="图层_1" xmlns="http://www.w3.org/2000/svg" xmlns:xlink="http://www.w3.org/1999/xlink" x="0px" y="0px"
	 viewBox="0 0 253.08 35.25" style="enable-background:new 0 0 253.08 35.25;" xml:space="preserve">
<style type="text/css">
	.st0{fill:#FFFFFF;}
</style>
<g>
	<path d="M116.46,7.54c-3.59,0-6.69,1.54-8.63,4.26c-1.27-2.08-3.64-4.26-7.97-4.26c-2.92,0-5.43,1.04-7.18,2.96V7.91h-4.26v26.77
		h4.26V17.53c0-3.58,3.31-5.99,6.4-5.99c3.76,0,6.09,2.65,6.09,6.92v16.21h4.26V17.94c0-3.1,1.71-6.4,6.51-6.4
		c3.73,0,6.14,2.72,6.14,6.92v16.21h4.26V18.46C126.34,11.73,122.55,7.54,116.46,7.54z"/>
	<path d="M31.53,7.44c-7.8,0-13.46,5.81-13.46,13.82c0,8.11,5.49,13.77,13.36,13.77c5.21,0,9.27-2.25,11.74-6.5l0.21-0.37
		l-3.65-2.35l-0.23,0.4c-1.92,3.28-4.49,4.81-8.07,4.81c-4.99,0-8.82-3.74-9.09-8.76H44V20.9c-0.03-4.05-1.3-7.47-3.67-9.91
		C38.1,8.7,34.97,7.44,31.53,7.44z M22.53,18.43c1.02-4.15,4.61-7,8.89-7c4.24,0,7.5,2.79,8.25,7H22.53z"/>
	<polygon points="0,34.72 4.26,34.72 4.26,11.9 16.45,11.9 16.45,7.91 0,7.91 	"/>
	<path d="M143.43,7.44c-7.8,0-13.46,5.81-13.46,13.82c0,8.11,5.49,13.77,13.36,13.77c5.21,0,9.27-2.25,11.74-6.5l0.21-0.37
		l-3.65-2.35l-0.23,0.4c-1.92,3.28-4.49,4.81-8.07,4.81c-4.99,0-8.82-3.74-9.09-8.76h21.67V20.9c-0.03-4.05-1.3-7.47-3.67-9.91
		C150,8.7,146.87,7.44,143.43,7.44z M134.44,18.43c1.02-4.15,4.61-7,8.89-7c4.24,0,7.5,2.79,8.25,7H134.44z"/>
	<rect x="78.64" width="4.26" height="34.67"/>
	<path d="M68.92,10.42c-2.24-1.84-5.2-2.88-8.27-2.88c-3.81,0-7.27,1.42-9.76,3.99c-2.46,2.54-3.81,6.03-3.81,9.84
		c0,3.8,1.35,7.29,3.81,9.81c2.48,2.55,5.95,3.96,9.76,3.96c3.11,0,6.07-1.03,8.27-2.86v2.45h4.2V7.96h-4.2V10.42z M60.44,30.88
		c-5.19,0-9.1-4.09-9.1-9.52c0-5.45,3.91-9.57,9.1-9.57c5.38,0,9,3.85,9,9.57C69.43,27.06,65.82,30.88,60.44,30.88z"/>
	<path d="M196.05,9.14l0.21,0.2l3.2-3.06l-0.23-0.22c-6.96-6.66-18.29-6.66-25.25,0c-3.38,3.23-5.24,7.53-5.24,12.1
		c0,4.57,1.86,8.87,5.24,12.1c3.37,3.22,7.85,5,12.62,5s9.26-1.77,12.62-5l0.23-0.22l-3.2-3.06l-0.21,0.2
		c-5.21,4.99-13.68,4.99-18.89,0c-2.52-2.41-3.91-5.61-3.91-9.02c0-3.4,1.39-6.61,3.91-9.02C182.37,4.15,190.84,4.15,196.05,9.14z"
		/>
	<path d="M222.02,16.23c-2.18-1.82-4.8-2.64-8.49-2.64h-3.34l1.18-7.92h13.41V1.34h-17.32l-2.48,16.6h8.54
		c3.22,0,4.6,0.79,5.53,1.57c1.44,1.21,2.27,2.95,2.27,4.77c0,3.5-2.98,6.35-6.65,6.35c-3.67,0-6.65-2.85-6.65-6.35v-0.3h-4.51v0.3
		c0,5.89,5.01,10.69,11.16,10.69s11.16-4.79,11.16-10.69C225.84,21.2,224.44,18.27,222.02,16.23z"/>
	<path d="M249.79,17l-0.07-0.07c-0.05-0.05-0.09-0.09-0.14-0.13c-0.06-0.05-0.12-0.11-0.19-0.16l-0.12-0.1
		c-2.16-1.72-4.69-2.04-5.92-2.09l8.26-8.64l0.08-0.09V1.34h-19.73v4.34h13.79l-9.01,9.96l2.49,3.23l0.34-0.13
		c0.77-0.29,1.59-0.44,2.44-0.44c3.61,0,6.55,2.76,6.55,6.16c0,3.4-2.94,6.16-6.55,6.16c-3.61,0-6.55-2.77-6.55-6.16v-0.3h-4.51v0.3
		c0,5.79,4.96,10.5,11.06,10.5s11.06-4.71,11.06-10.5v0C253.08,21.65,251.91,19,249.79,17z"/>
</g>
</svg>
