<?xml version="1.0" encoding="UTF-8"?>
<svg width="468px" height="64px" viewBox="0 0 468 64" version="1.1" xmlns="http://www.w3.org/2000/svg" xmlns:xlink="http://www.w3.org/1999/xlink">
    <title>pc_01_kv-C53</title>
    <g id="product-page" stroke="none" stroke-width="1" fill="none" fill-rule="evenodd">
        <g id="pc_01_kv" transform="translate(-1388.000000, -271.000000)" fill="#050101">
            <path d="M1709.71797,281.999813 C1722.58219,269.901863 1743.53097,269.901863 1756.40027,281.999813 L1756.40027,281.999813 L1756.82671,282.398592 L1750.91241,287.956571 L1750.52405,287.592685 C1740.89111,278.5429 1725.22712,278.5429 1715.59165,287.592685 C1710.93636,291.971774 1708.37266,297.786466 1708.37266,303.967537 C1708.37266,310.153592 1710.93636,315.970777 1715.59165,320.344881 C1725.22458,329.394666 1740.89111,329.392174 1750.52405,320.342389 L1750.52405,320.342389 L1750.90987,319.976011 L1756.82163,325.531497 L1756.39773,325.930276 C1750.17376,331.779862 1741.88614,335 1733.05785,335 C1724.2321,335 1715.9394,331.779862 1709.71797,325.930276 C1703.47116,320.065736 1700.03173,312.264627 1700.03173,303.965045 C1700.03173,295.665462 1703.47116,287.864353 1709.71797,281.999813 Z M1500.14387,284.69481 C1505.81702,284.69481 1511.28711,286.579039 1515.43981,289.916319 L1515.43981,289.916319 L1515.43981,285.447505 L1523.21469,285.447505 L1523.21469,334.046171 L1515.43981,334.046171 L1515.43981,329.599788 C1511.36072,332.924606 1505.89317,334.801358 1500.14387,334.801358 C1493.10256,334.801358 1486.69584,332.246682 1482.10147,327.610879 C1477.56295,323.027416 1475.0627,316.701788 1475.0627,309.792947 C1475.0627,302.881613 1477.56041,296.538538 1482.10147,291.930151 C1486.69837,287.26444 1493.10764,284.69481 1500.14387,284.69481 Z M1446.30046,284.504642 C1452.66403,284.504642 1458.44379,286.795127 1462.57872,290.952396 C1466.97256,295.371363 1469.32305,301.592311 1469.37127,308.942302 L1469.37127,308.942302 L1469.37127,311.444638 L1429.30385,311.444638 C1429.7912,320.571687 1436.88074,327.35591 1446.11008,327.35591 C1452.7351,327.35591 1457.47669,324.576921 1461.03542,318.617671 L1461.03542,318.617671 L1461.46694,317.894884 L1468.21634,322.15434 L1467.82036,322.817309 C1463.25392,330.53617 1455.74556,334.613683 1446.11008,334.613683 C1431.56549,334.613683 1421.40966,324.330176 1421.40966,309.607764 C1421.40966,295.062309 1431.8777,284.504642 1446.30046,284.504642 Z M1653.23064,284.504642 C1659.59167,284.504642 1665.37397,286.795127 1669.5089,290.952396 C1673.90274,295.371363 1676.25069,301.592311 1676.29892,308.942302 L1676.29892,308.942302 L1676.29892,311.444638 L1636.23403,311.444638 C1636.71885,320.571687 1643.81092,327.35591 1653.03773,327.35591 C1659.66275,327.35591 1664.40687,324.576921 1667.96306,318.617671 L1667.96306,318.617671 L1668.39458,317.894884 L1675.14398,322.15434 L1674.748,322.817309 C1670.18156,330.53617 1662.6732,334.613683 1653.03773,334.613683 C1638.49313,334.613683 1628.3373,324.330176 1628.3373,309.607764 C1628.3373,295.062309 1638.80535,284.504642 1653.23064,284.504642 Z M1803.66892,273.43579 L1803.66892,281.319148 L1778.86443,281.319148 L1776.67893,295.692629 L1782.84705,295.692629 C1789.67768,295.692629 1794.5208,297.16811 1798.54658,300.477974 C1803.03941,304.164185 1805.61327,309.492866 1805.61327,315.093215 C1805.61074,325.792947 1796.35347,334.498785 1784.97671,334.498785 C1773.59994,334.498785 1764.34268,325.795439 1764.34268,315.098199 L1764.34268,315.098199 L1764.34268,314.544894 L1772.68361,314.544894 L1772.68361,315.098199 C1772.68361,321.448751 1778.19685,326.61792 1784.97671,326.61792 C1791.75657,326.61792 1797.27234,321.448751 1797.27234,315.098199 C1797.27234,311.783351 1795.74427,308.623029 1793.07903,306.429746 C1791.36059,305.019067 1788.79942,303.575986 1782.84705,303.575986 L1782.84705,303.575986 L1767.05869,303.575986 L1771.63528,273.43579 L1803.66892,273.43579 Z M1853.44391,273.437037 L1853.44391,281.40015 L1853.28653,281.562153 L1838.00329,297.254097 C1840.27255,297.34133 1844.95576,297.927036 1848.94092,301.052464 L1848.94092,301.052464 L1849.16683,301.234407 C1849.28614,301.329117 1849.4029,301.423827 1849.51712,301.523522 C1849.59835,301.590816 1849.68211,301.670571 1849.76842,301.752819 L1849.76842,301.752819 L1849.90041,301.874945 C1853.8272,305.496355 1855.99239,310.304131 1856,315.420961 L1856,315.420961 C1856,325.93875 1846.82142,334.495046 1835.54366,334.495046 C1824.26335,334.495046 1815.08731,325.93875 1815.08731,315.423453 L1815.08731,315.423453 L1815.08731,314.870148 L1823.42316,314.870148 L1823.42316,315.423453 C1823.42316,321.594554 1828.86025,326.614182 1835.54112,326.614182 C1842.21944,326.614182 1847.65399,321.594554 1847.65399,315.423453 C1847.65399,309.252352 1842.21944,304.232725 1835.54112,304.232725 C1833.97751,304.232725 1832.46213,304.5019 1831.03559,305.032775 L1831.03559,305.032775 L1830.40863,305.264565 L1825.79649,299.39504 L1842.45297,281.317901 L1816.95805,281.317901 L1816.95805,273.437037 L1853.44391,273.437037 Z M1418.40911,285.353792 L1418.40911,292.611565 L1395.87134,292.611565 L1395.87134,334.047168 L1388,334.047168 L1388,285.353792 L1418.40911,285.353792 Z M1603.35107,284.693813 C1614.62122,284.693813 1621.62446,292.290548 1621.62446,304.520593 L1621.62446,304.520593 L1621.62446,333.952957 L1613.75565,333.952957 L1613.75565,304.520593 C1613.75565,296.886473 1609.29328,291.951586 1602.39158,291.951586 C1593.52014,291.951586 1590.35739,297.958191 1590.35739,303.578478 L1590.35739,303.578478 L1590.35739,333.952957 L1582.48605,333.952957 L1582.48605,304.520593 C1582.48605,296.769331 1578.1709,291.951586 1571.22098,291.951586 C1565.50213,291.951586 1559.3797,296.320705 1559.3797,302.825784 L1559.3797,302.825784 L1559.3797,333.952957 L1551.50836,333.952957 L1551.50836,285.35429 L1559.3797,285.35429 L1559.3797,290.062371 C1562.62368,286.583027 1567.25358,284.693813 1572.6602,284.693813 C1580.661,284.693813 1585.03707,288.666646 1587.39009,292.432613 C1590.97167,287.497726 1596.71335,284.693813 1603.35107,284.693813 Z M1541.29669,271 L1541.29669,333.952209 L1533.42535,333.952209 L1533.42535,271 L1541.29669,271 Z M1499.76058,292.42364 C1490.16826,292.42364 1482.9315,299.890772 1482.9315,309.792947 C1482.9315,319.645274 1490.16826,327.072528 1499.76058,327.072528 C1509.71081,327.072528 1516.39929,320.128793 1516.39929,309.792947 C1516.39929,299.402268 1509.71081,292.42364 1499.76058,292.42364 Z M1446.11008,291.762415 C1438.18544,291.762415 1431.55788,296.941554 1429.66936,304.470995 L1429.66936,304.470995 L1461.3654,304.470995 C1459.97948,296.83189 1453.9535,291.762415 1446.11008,291.762415 Z M1653.03773,291.762415 C1645.11308,291.762415 1638.48806,296.941554 1636.59701,304.470995 L1636.59701,304.470995 L1668.29305,304.470995 C1666.90712,296.83189 1660.88114,291.762415 1653.03773,291.762415 Z" id="pc_01_kv-C53"></path>
        </g>
    </g>
</svg>