<?xml version="1.0" encoding="UTF-8"?>
<svg width="312px" height="83px" viewBox="0 0 312 83" version="1.1" xmlns="http://www.w3.org/2000/svg" xmlns:xlink="http://www.w3.org/1999/xlink">
    <title>m-22-799</title>
    <defs>
        <linearGradient x1="0%" y1="46.5213191%" x2="100%" y2="53.4786809%" id="linearGradient-1">
            <stop stop-color="#FFED96" offset="0%"></stop>
            <stop stop-color="#FFBA34" offset="99.9260749%"></stop>
        </linearGradient>
    </defs>
    <g id="product-page" stroke="none" stroke-width="1" fill="none" fill-rule="evenodd">
        <g id="realme-C53_M_360" transform="translate(-24.000000, -11802.000000)" fill="url(#linearGradient-1)" fill-rule="nonzero">
            <g id="m-22-7.99mm" transform="translate(0.000000, 11513.000000)">
                <path d="M73.5,359 C77.1636364,359 80,361.836364 80,365.5 C80,369.163636 77.1636364,372 73.5,372 C69.8363636,372 67,369.163636 67,365.5 C67,361.836364 69.8363636,359 73.5,359 Z M180.5,289 C195.83617,289 207,299.825843 207,315.603933 C207,321.746255 205.303437,327.022222 202.42442,331.326821 L202.151064,331.727528 L176.32766,371 L167.419149,371 L186.814894,341.516854 C184.785106,341.977528 182.642553,342.207865 180.5,342.207865 C165.16383,342.207865 154,331.382022 154,315.603933 C154,299.825843 165.16383,289 180.5,289 Z M118.5,289 C133.83617,289 145,299.825843 145,315.603933 C145,321.746255 143.303437,327.022222 140.42442,331.326821 L140.151064,331.727528 L114.32766,371 L105.419149,371 L124.814894,341.516854 C122.785106,341.977528 120.642553,342.207865 118.5,342.207865 C103.16383,342.207865 92,331.382022 92,315.603933 C92,299.825843 103.16383,289 118.5,289 Z M73,290 L73,297.542857 L42.9162791,370 L34.5976744,370 L64.6813953,297.542857 L24,297.542857 L24,290 L73,290 Z M256.796703,331 C265.182692,331 271,336.853801 271,346.356725 L271,346.356725 L271,370 L264.427198,370 L264.427198,346.584795 C264.427198,340.578947 261.103022,337.309942 256.116758,337.309942 C250.828297,337.309942 246.824176,340.654971 246.824176,348.865497 L246.824176,348.865497 L246.824176,370 L240.251374,370 L240.251374,346.584795 C240.251374,340.578947 237.153846,337.309942 232.243132,337.309942 C227.181319,337.309942 222.572802,340.654971 222.572802,348.865497 L222.572802,348.865497 L222.572802,370 L216,370 L216,331.988304 L222.572802,331.988304 L222.572802,337.081871 C225.292582,332.824561 229.221154,331 233.82967,331 C238.967033,331 242.744505,333.356725 244.93544,337.461988 C247.57967,333.128655 251.885989,331 256.796703,331 Z M321.796703,331 C330.182692,331 336,336.853801 336,346.356725 L336,346.356725 L336,370 L329.427198,370 L329.427198,346.584795 C329.427198,340.578947 326.103022,337.309942 321.116758,337.309942 C315.828297,337.309942 311.824176,340.654971 311.824176,348.865497 L311.824176,348.865497 L311.824176,370 L305.251374,370 L305.251374,346.584795 C305.251374,340.578947 302.153846,337.309942 297.243132,337.309942 C292.181319,337.309942 287.572802,340.654971 287.572802,348.865497 L287.572802,348.865497 L287.572802,370 L281,370 L281,331.988304 L287.572802,331.988304 L287.572802,337.081871 C290.292582,332.824561 294.221154,331 298.82967,331 C303.967033,331 307.744505,333.356725 309.93544,337.461988 C312.57967,333.128655 316.885989,331 321.796703,331 Z M180.5,296.831461 C169.33617,296.831461 161.893617,304.317416 161.893617,315.603933 C161.893617,326.890449 169.33617,334.376404 180.5,334.376404 C191.66383,334.376404 199.106383,326.890449 199.106383,315.603933 C199.106383,304.317416 191.66383,296.831461 180.5,296.831461 Z M118.5,296.831461 C107.33617,296.831461 99.893617,304.317416 99.893617,315.603933 C99.893617,326.890449 107.33617,334.376404 118.5,334.376404 C129.66383,334.376404 137.106383,326.890449 137.106383,315.603933 C137.106383,304.317416 129.66383,296.831461 118.5,296.831461 Z" id="m-22-799"></path>
            </g>
        </g>
    </g>
</svg>