<?xml version="1.0" encoding="UTF-8"?>
<svg width="1200px" height="317px" viewBox="0 0 1200 317" version="1.1" xmlns="http://www.w3.org/2000/svg" xmlns:xlink="http://www.w3.org/1999/xlink">
    <title>pc-22-799</title>
    <defs>
        <linearGradient x1="0%" y1="46.5164353%" x2="100%" y2="53.4835647%" id="linearGradient-1">
            <stop stop-color="#FFED96" offset="0%"></stop>
            <stop stop-color="#FFBA34" offset="99.9260749%"></stop>
        </linearGradient>
    </defs>
    <g id="product-page" stroke="none" stroke-width="1" fill="none" fill-rule="evenodd">
        <g id="realme-C53_PC_2560" transform="translate(-680.000000, -17912.000000)" fill="url(#linearGradient-1)" fill-rule="nonzero">
            <g id="pc-22-7.99mm" transform="translate(0.000000, 17590.000000)">
                <path d="M870.835974,590.486473 C884.435779,590.486473 894.96466,601.015355 894.96466,614.61516 C894.96466,628.214965 884.435779,638.743846 870.835974,638.743846 C857.236169,638.743846 846.707287,628.214965 846.707287,614.61516 C846.707287,601.015355 857.236169,590.486473 870.835974,590.486473 Z M868.642457,327.264441 L868.642457,356.218864 L752.824762,634.356812 L720.799415,634.356812 L836.617109,356.218864 L680,356.218864 L680,327.264441 L868.642457,327.264441 Z M1283.21716,322 C1342.88082,322 1386.31245,363.238118 1386.31245,423.340483 C1386.31245,447.174917 1379.46336,467.584802 1367.8794,484.147291 L1367.44821,484.758957 L1266.98513,634.356812 L1232.32757,634.356812 L1307.78455,522.048745 C1299.88789,523.803558 1291.55252,524.680965 1283.21716,524.680965 C1223.5535,524.680965 1180.12186,483.442847 1180.12186,423.340483 C1180.12186,363.238118 1223.5535,322 1283.21716,322 Z M1576.70972,484.320253 C1609.17378,484.320253 1631.69388,506.840361 1631.69388,543.398976 L1631.69388,543.398976 L1631.69388,634.356812 L1606.24909,634.356812 L1606.24909,544.276383 C1606.24909,521.171338 1593.38045,508.595174 1574.0775,508.595174 C1553.60468,508.595174 1538.10383,521.463807 1538.10383,553.050451 L1538.10383,553.050451 L1538.10383,634.356812 L1512.65903,634.356812 L1512.65903,544.276383 C1512.65903,521.171338 1500.6678,508.595174 1481.65732,508.595174 C1462.06191,508.595174 1444.2213,521.463807 1444.2213,553.050451 L1444.2213,553.050451 L1444.2213,634.356812 L1418.7765,634.356812 L1418.7765,488.12235 L1444.2213,488.12235 L1444.2213,507.717767 C1454.75018,491.339508 1469.95857,484.320253 1487.79917,484.320253 C1507.68706,484.320253 1522.3105,493.38679 1530.7921,509.180112 C1541.02852,492.509383 1557.69924,484.320253 1576.70972,484.320253 Z M1825.01584,484.320253 C1857.47989,484.320253 1880,506.840361 1880,543.398976 L1880,543.398976 L1880,634.356812 L1854.5552,634.356812 L1854.5552,544.276383 C1854.5552,521.171338 1841.68657,508.595174 1822.38362,508.595174 C1801.9108,508.595174 1786.40994,521.463807 1786.40994,553.050451 L1786.40994,553.050451 L1786.40994,634.356812 L1760.96515,634.356812 L1760.96515,544.276383 C1760.96515,521.171338 1748.97392,508.595174 1729.96344,508.595174 C1710.36802,508.595174 1692.52742,521.463807 1692.52742,553.050451 L1692.52742,553.050451 L1692.52742,634.356812 L1667.08262,634.356812 L1667.08262,488.12235 L1692.52742,488.12235 L1692.52742,507.717767 C1703.0563,491.339508 1718.26468,484.320253 1736.10529,484.320253 C1755.99318,484.320253 1770.61662,493.38679 1779.09822,509.180112 C1789.33463,492.509383 1806.00536,484.320253 1825.01584,484.320253 Z M1043.05996,322 C1102.72362,322 1146.15525,363.238118 1146.15525,423.340483 C1146.15525,447.174917 1139.30616,467.584802 1127.7222,484.147291 L1127.29101,484.758957 L1026.82793,634.356812 L992.170363,634.356812 L1067.62735,522.048745 C1059.73068,523.803558 1051.39532,524.680965 1043.05996,524.680965 C983.396295,524.680965 939.96466,483.442847 939.96466,423.340483 C939.96466,363.238118 983.396295,322 1043.05996,322 Z M1283.21716,351.83183 C1239.78552,351.83183 1210.8311,380.347551 1210.8311,423.340483 C1210.8311,466.333415 1239.78552,494.849135 1283.21716,494.849135 C1326.64879,494.849135 1355.60322,466.333415 1355.60322,423.340483 C1355.60322,380.347551 1326.64879,351.83183 1283.21716,351.83183 Z M1043.05996,351.83183 C999.628321,351.83183 970.673897,380.347551 970.673897,423.340483 C970.673897,466.333415 999.628321,494.849135 1043.05996,494.849135 C1086.49159,494.849135 1115.44602,466.333415 1115.44602,423.340483 C1115.44602,380.347551 1086.49159,351.83183 1043.05996,351.83183 Z" id="pc-22-799"></path>
            </g>
        </g>
    </g>
</svg>