<?xml version="1.0" encoding="UTF-8"?>
<svg width="236px" height="32px" viewBox="0 0 236 32" version="1.1" xmlns="http://www.w3.org/2000/svg" xmlns:xlink="http://www.w3.org/1999/xlink">
    <title>m-01-C53</title>
    <g id="product-page" stroke="none" stroke-width="1" fill="none" fill-rule="evenodd">
        <g id="m-01-kv" transform="translate(-62.000000, -74.000000)" fill="#050101">
            <path d="M170.419032,80.9704641 C176.021041,80.9704641 179.50211,84.8096911 179.50211,90.9904937 L179.50211,90.9904937 L179.50211,105.864979 L175.590797,105.864979 L175.590797,90.9904937 C175.590797,87.132373 173.372704,84.638387 169.942104,84.638387 C165.532414,84.638387 163.960319,87.6739962 163.960319,90.5143691 L163.960319,90.5143691 L163.960319,105.864979 L160.047744,105.864979 L160.047744,90.9904937 C160.047744,87.0731723 157.902831,84.638387 154.448259,84.638387 C151.605617,84.638387 148.562364,86.8464463 148.562364,90.1339733 L148.562364,90.1339733 L148.562364,105.864979 L144.649789,105.864979 L144.649789,81.3042552 L148.562364,81.3042552 L148.562364,83.6836186 C150.174834,81.9252325 152.4762,80.9704641 155.16365,80.9704641 C159.140572,80.9704641 161.315767,82.9782488 162.485375,84.8814876 C164.265654,82.3875016 167.11965,80.9704641 170.419032,80.9704641 Z M91.3310743,80.9704641 C94.5019728,80.9704641 97.3819632,82.108393 99.4423515,84.1737524 C101.631751,86.3691254 102.802973,89.4597351 102.827004,93.1112608 L102.827004,93.1112608 L102.827004,94.3544388 L82.8618537,94.3544388 C83.1046987,98.8888189 86.6373351,102.259268 91.236213,102.259268 C94.5373877,102.259268 96.9000676,100.878647 98.6733422,97.9180505 L98.6733422,97.9180505 L98.8883613,97.5589652 L102.251512,99.6750918 L102.0542,100.00446 C99.7787931,103.839243 96.0374617,105.864979 91.236213,105.864979 C83.9888065,105.864979 78.92827,100.756062 78.92827,93.4418669 C78.92827,86.2155855 84.1443791,80.9704641 91.3310743,80.9704641 Z M76.9367089,81.9662447 L76.9367089,85.5283635 L65.8663384,85.5283635 L65.8663384,105.864979 L62,105.864979 L62,81.9662447 L76.9367089,81.9662447 Z M196.885082,80.9704641 C200.054715,80.9704641 202.935971,82.108393 204.996359,84.1737524 C207.185759,86.3691254 208.355715,89.4597351 208.379747,93.1112608 L208.379747,93.1112608 L208.379747,94.3544388 L188.415861,94.3544388 C188.657441,98.8888189 192.191343,102.259268 196.788956,102.259268 C200.09013,102.259268 202.454075,100.878647 204.226085,97.9180505 L204.226085,97.9180505 L204.441104,97.5589652 L207.804255,99.6750918 L207.606943,100.00446 C205.331536,103.839243 201.590204,105.864979 196.788956,105.864979 C189.541549,105.864979 184.481013,100.756062 184.481013,93.4418669 C184.481013,86.2155855 189.697122,80.9704641 196.885082,80.9704641 Z M139.670886,74 L139.670886,105.864979 L135.687764,105.864979 L135.687764,74 L139.670886,74 Z M118.262601,80.9704641 C121.078292,80.9704641 123.793199,81.9066088 125.85426,83.5646747 L125.85426,83.5646747 L125.85426,81.3444267 L129.71308,81.3444267 L129.71308,105.489778 L125.85426,105.489778 L125.85426,103.280675 C123.829733,104.932549 121.116087,105.864979 118.262601,105.864979 C114.767868,105.864979 111.588089,104.595735 109.307819,102.292522 C107.055266,100.015313 105.814346,96.8725413 105.814346,93.4400107 C105.814346,90.0062418 107.054006,86.8548023 109.307819,84.5652103 C111.589348,82.2471377 114.770387,80.9704641 118.262601,80.9704641 Z M224.258342,79.5080095 C230.799207,73.4917043 241.450699,73.4917043 247.994146,79.5080095 L247.994146,79.5080095 L248.21097,79.706322 L245.203824,82.4703023 L245.006359,82.2893422 C240.108454,77.7888881 232.144034,77.7888881 227.244838,82.2893422 C224.87784,84.4670612 223.574313,87.3587052 223.574313,90.4325488 C223.574313,93.5088713 224.87784,96.4017548 227.244838,98.5769949 C232.142743,103.077449 240.108454,103.07621 245.006359,98.5757554 L245.006359,98.5757554 L245.202534,98.3935558 L248.208389,101.156297 L247.992856,101.354609 C244.828254,104.263606 240.614377,105.864979 236.125599,105.864979 C231.638111,105.864979 227.421653,104.263606 224.258342,101.354609 C221.082124,98.4381761 219.333333,94.558688 219.333333,90.4313093 C219.333333,86.3039306 221.082124,82.4244425 224.258342,79.5080095 Z M271.124519,74.9957806 L271.124519,78.9810571 L258.556334,78.9810571 L257.448965,86.2472884 L260.574292,86.2472884 C264.035301,86.2472884 266.489262,86.993189 268.529084,88.6664256 C270.805556,90.5299172 272.109705,93.2237272 272.109705,96.0548737 C272.108418,101.463913 267.417856,105.864979 261.653365,105.864979 C255.888874,105.864979 251.198312,101.465173 251.198312,96.0573936 L251.198312,96.0573936 L251.198312,95.7776809 L255.424577,95.7776809 L255.424577,96.0573936 C255.424577,99.2677902 258.218079,101.880962 261.653365,101.880962 C265.088652,101.880962 267.88344,99.2677902 267.88344,96.0573936 C267.88344,94.3816371 267.109182,92.7839986 265.758733,91.6752274 C264.888014,90.9620859 263.590296,90.2325649 260.574292,90.2325649 L260.574292,90.2325649 L252.574485,90.2325649 L254.8934,74.9957806 L271.124519,74.9957806 Z M296.693524,74.9957806 L296.693524,79.0217047 L296.613086,79.1036093 L288.801478,87.0370109 C289.961348,87.0811133 292.35504,87.3772298 294.391948,88.9573578 L294.391948,88.9573578 L294.507416,89.0493429 C294.568394,89.0972255 294.628074,89.1451082 294.686456,89.195511 C294.727973,89.2295329 294.770787,89.2698551 294.814898,89.3114375 L294.814898,89.3114375 L294.882363,89.3731809 C296.889431,91.2040628 297.996108,93.6347381 298,96.2216621 L298,96.2216621 C298,101.539158 293.308624,105.864979 287.544304,105.864979 C281.778686,105.864979 277.088608,101.539158 277.088608,96.2229222 L277.088608,96.2229222 L277.088608,95.9431866 L281.349249,95.9431866 L281.349249,96.2229222 C281.349249,99.3428559 284.128266,101.880637 287.543006,101.880637 C290.956449,101.880637 293.734169,99.3428559 293.734169,96.2229222 C293.734169,93.1029885 290.956449,90.5652073 287.543006,90.5652073 C286.743812,90.5652073 285.969268,90.7012948 285.240133,90.9696898 L285.240133,90.9696898 L284.919676,91.0868763 L282.562312,88.1194111 L291.07581,78.9801224 L278.044787,78.9801224 L278.044787,74.9957806 L296.693524,74.9957806 Z M118.072368,84.810391 C113.311519,84.810391 109.71978,88.5202978 109.71978,93.4400107 C109.71978,98.3349578 113.311519,102.025052 118.072368,102.025052 C123.010852,102.025052 126.330471,98.5751854 126.330471,93.4400107 C126.330471,88.2775936 123.010852,84.810391 118.072368,84.810391 Z M91.236213,84.5761755 C87.2874515,84.5761755 83.985012,87.1492072 83.0439875,90.8898851 L83.0439875,90.8898851 L98.8377686,90.8898851 C98.147178,87.0947253 95.1445003,84.5761755 91.236213,84.5761755 Z M196.788956,84.5761755 C192.840194,84.5761755 189.539019,87.1492072 188.59673,90.8898851 L188.59673,90.8898851 L204.390511,90.8898851 C203.699921,87.0947253 200.697243,84.5761755 196.788956,84.5761755 Z" id="m-01-C53"></path>
        </g>
    </g>
</svg>