<?xml version="1.0" encoding="UTF-8"?>
<svg width="252px" height="24px" viewBox="0 0 252 24" version="1.1" xmlns="http://www.w3.org/2000/svg" xmlns:xlink="http://www.w3.org/1999/xlink">
    <title>编组 4</title>
    <defs>
        <linearGradient x1="176.146007%" y1="47.6113499%" x2="-103.736392%" y2="54.276793%" id="linearGradient-1">
            <stop stop-color="#1ACAE1" offset="0%"></stop>
            <stop stop-color="#FFDD26" offset="9.14064098%"></stop>
            <stop stop-color="#E037FF" offset="29.8065974%"></stop>
            <stop stop-color="#43D0FF" offset="66.673381%"></stop>
            <stop stop-color="#21EF78" offset="77.2361962%"></stop>
            <stop stop-color="#FFF00D" offset="100%"></stop>
        </linearGradient>
        <path d="M174.851841,20.9947826 L174.851841,14.9718261 L182.635257,14.9718261 L182.635257,12.6114783 L174.851841,12.6114783 L174.851841,6.77843478 L183.294868,6.77843478 L183.294868,4.39095652 L172.398086,4.39095652 L172.398086,23.3822609 L183.42679,23.3822609 L183.42679,20.9947826 L174.851841,20.9947826 Z M197.067556,4.39095652 L197.067556,12.1502609 C196.012177,10.4953043 194.323572,9.46434783 192.080893,9.46434783 C188.413453,9.46434783 185.405625,12.5843478 185.405625,16.5996522 C185.405625,20.6149565 188.413453,23.7349565 192.080893,23.7349565 C194.323572,23.7349565 196.012177,22.704 197.067556,21.0490435 L197.067556,23.3822609 L199.363004,23.3822609 L199.363004,4.39095652 L197.067556,4.39095652 Z M192.371122,21.456 C189.732676,21.456 187.701073,19.3669565 187.701073,16.5996522 C187.701073,13.8323478 189.732676,11.7433043 192.371122,11.7433043 C195.035952,11.7433043 197.067556,13.8323478 197.067556,16.5996522 C197.067556,19.3669565 195.035952,21.456 192.371122,21.456 Z M204.006669,7.34817391 C204.850971,7.34817391 205.536967,6.64278261 205.536967,5.7746087 C205.536967,4.90643478 204.850971,4.17391304 204.006669,4.17391304 C203.135981,4.17391304 202.449986,4.90643478 202.449986,5.7746087 C202.449986,6.64278261 203.135981,7.34817391 204.006669,7.34817391 Z M202.845752,23.3822609 L205.1412,23.3822609 L205.1412,9.81704348 L202.845752,9.81704348 L202.845752,23.3822609 Z M215.826906,12.096 L215.826906,9.81704348 L212.317773,9.81704348 L212.317773,6.01878261 L210.022325,6.72417391 L210.022325,9.81704348 L207.410264,9.81704348 L207.410264,12.096 L210.022325,12.096 L210.022325,19.4483478 C210.022325,22.8396522 211.869237,23.9248696 215.826906,23.3822609 L215.826906,21.266087 L214.94307,21.305961 C213.187172,21.3713077 212.317773,21.2326957 212.317773,19.4483478 L212.317773,12.096 L215.826906,12.096 Z M219.784575,7.34817391 C220.628878,7.34817391 221.314874,6.64278261 221.314874,5.7746087 C221.314874,4.90643478 220.628878,4.17391304 219.784575,4.17391304 C218.913888,4.17391304 218.227892,4.90643478 218.227892,5.7746087 C218.227892,6.64278261 218.913888,7.34817391 219.784575,7.34817391 Z M218.623659,23.3822609 L220.919107,23.3822609 L220.919107,9.81704348 L218.623659,9.81704348 L218.623659,23.3822609 Z M230.628588,23.7349565 C234.480719,23.7349565 237.594085,20.6149565 237.594085,16.5996522 C237.594085,12.5843478 234.480719,9.46434783 230.628588,9.46434783 C226.776457,9.46434783 223.689475,12.5843478 223.689475,16.5996522 C223.689475,20.6149565 226.776457,23.7349565 230.628588,23.7349565 Z M230.628588,21.4288696 C228.016527,21.4288696 225.984923,19.3398261 225.984923,16.5996522 C225.984923,13.8594783 228.016527,11.7704348 230.628588,11.7704348 C233.267034,11.7704348 235.298637,13.8594783 235.298637,16.5996522 C235.298637,19.3398261 233.267034,21.4288696 230.628588,21.4288696 Z M246.881415,9.46434783 C249.968397,9.46434783 252,11.5805217 252,15.0532174 L252,23.3822609 L249.704552,23.3822609 L249.704552,15.1888696 C249.704552,12.9641739 248.464482,11.7161739 246.432879,11.7161739 C244.322122,11.7161739 242.607133,12.9913043 242.607133,16.1926957 L242.607133,23.3822609 L240.311685,23.3822609 L240.311685,9.81704348 L242.607133,9.81704348 L242.607133,11.7704348 C243.583357,10.1697391 245.034503,9.46434783 246.881415,9.46434783 Z M157.543636,23.373913 L157.543636,6.77008696 L163.005219,6.77008696 L163.005219,4.3826087 L149.681067,4.3826087 L149.681067,6.77008696 L155.116266,6.77008696 L155.116266,23.373913 L157.543636,23.373913 Z" id="path-2"></path>
        <polygon id="path-3" points="0 24 102.59359 24 102.59359 0 0 0"></polygon>
    </defs>
    <g id="product-page" stroke="none" stroke-width="1" fill="none" fill-rule="evenodd">
        <g id="realme-C53_M_360" transform="translate(-56.000000, -14342.000000)">
            <g id="m-24-Function" transform="translate(0.000000, 12620.000000)">
                <g id="m-24-UI" transform="translate(24.000000, 1679.000000)">
                    <g id="编组-4" transform="translate(32.000000, 43.000000)">
                        <g id="REdition" fill-rule="nonzero">
                            <use fill="#494949" xlink:href="#path-2"></use>
                            <use fill="url(#linearGradient-1)" xlink:href="#path-2"></use>
                        </g>
                        <g id="编组-2">
                            <g id="编组">
                                <path d="M60.9087894,12.1997067 C60.9087894,9.78855752 63.1046894,8.16886655 65.1554817,8.16886655 C67.6476708,8.16886655 69.1959487,9.95428384 69.1959487,12.8282636 L69.1959487,23.7391304 L72.0186615,23.7391304 L72.0186615,12.478997 C72.0186615,10.3953289 73.1523931,8.16886655 76.3341337,8.16886655 C78.8094758,8.16886655 80.4088515,9.99785492 80.4088515,12.8282636 L80.4088515,23.7391304 L83.2315643,23.7391304 L83.2315643,12.8282636 C83.2315643,8.29454469 80.720367,5.47826087 76.6780991,5.47826087 C74.2977654,5.47826087 72.2386395,6.51743615 70.9535462,8.34757113 C70.1102098,6.95082051 68.5403042,5.47826087 65.6714215,5.47826087 C63.732812,5.47826087 62.072335,6.17847241 60.9087894,7.46832266 L60.9087894,5.72280398 L58.0860766,5.72280398 L58.0860766,23.7391304 L60.9087894,23.7391304 L60.9087894,12.1997067 Z" id="Fill-1" fill="#000000"></path>
                                <path d="M15.0144932,12.597176 C15.6884147,9.81368404 18.0511602,7.90010582 20.8756541,7.90010582 C23.6724789,7.90010582 25.8209516,9.7732372 26.3147799,12.597176 L15.0144932,12.597176 Z M29.1687657,14.2500121 C29.1519853,11.5329815 28.314751,9.23350958 26.7477361,7.60007672 C25.2736895,6.06361024 23.2125046,5.2173913 20.9438828,5.2173913 C15.8019069,5.2173913 12.0698341,9.11945975 12.0698341,14.4956591 C12.0698341,19.9380051 15.6908561,23.7391304 20.8756541,23.7391304 C24.3115699,23.7391304 26.9883922,22.231512 28.6162953,19.3790566 L28.7564799,19.1335586 L26.3512543,17.5594787 L26.1975443,17.8265174 C24.9288349,20.0300006 23.2377485,21.0562502 20.8756541,21.0562502 C17.5859613,21.0562502 15.0578035,18.5489103 14.8850507,15.1754677 L29.1687657,15.1754677 L29.1687657,14.2500121 Z" id="Fill-3" fill="#000000"></path>
                                <polygon id="Fill-5" fill="#000000" points="2.79862393 8.42209862 10.8125597 8.42209862 10.8125597 5.73913043 0 5.73913043 0 23.7391304 2.79862393 23.7391304"></polygon>
                                <path d="M88.4395216,12.597176 C89.1134489,9.81368404 91.4762146,7.90010582 94.3005862,7.90010582 C97.0974187,7.90010582 99.2457471,9.7732372 99.7395796,12.597176 L88.4395216,12.597176 Z M94.3005862,23.7391304 C97.7365152,23.7391304 100.41336,22.231512 102.041277,19.3790566 L102.18148,19.1335586 L99.776217,17.5594787 L99.622522,17.8265174 C98.3537854,20.0300006 96.6626683,21.0562502 94.3005862,21.0562502 C91.010849,21.0562502 88.4826695,18.5489103 88.3099152,15.1754677 L102.59359,15.1754677 L102.59359,14.2500121 C102.576826,11.5329815 101.739568,9.23350958 100.172702,7.60007672 C98.698643,6.06361024 96.6374567,5.2173913 94.3689783,5.2173913 C89.2267792,5.2173913 85.4946582,9.11945975 85.4946582,14.4956591 C85.4946582,19.9380051 89.1157438,23.7391304 94.3005862,23.7391304 L94.3005862,23.7391304 Z" id="Fill-7" fill="#000000"></path>
                                <mask id="mask-4" fill="white">
                                    <use xlink:href="#path-3"></use>
                                </mask>
                                <g id="Clip-10"></g>
                                <polygon id="Fill-9" fill="#000000" mask="url(#mask-4)" points="51.5482498 23.7391304 54.5657083 23.7391304 54.5657083 0 51.5482498 0"></polygon>
                                <path d="M33.7238756,14.756446 C33.7238756,11.0957003 36.2928994,8.33504997 39.6996974,8.33504997 C43.2333474,8.33504997 45.6075947,10.9156846 45.6075947,14.756446 C45.6075947,18.5765116 43.2333474,21.1431943 39.6996974,21.1431943 C36.2928994,21.1431943 33.7238756,18.3974735 33.7238756,14.756446 M39.8359356,24 C41.8769148,24 43.8189576,23.3061175 45.2670316,22.0774569 L45.2670316,23.7215091 L48.0278815,23.7215091 L48.0278815,5.75675174 L45.2670316,5.75675174 L45.2670316,7.40908894 C43.7931658,6.17530826 41.8501503,5.47826087 39.8359356,5.47826087 C37.3373004,5.47826087 35.0618112,6.42843057 33.4287036,8.15354292 C31.8167029,9.85645155 30.9289499,12.2013623 30.9289499,14.756446 C30.9289499,17.3095579 31.8168488,19.6486692 33.4293683,21.3427792 C35.0602063,23.0562926 37.3353551,24 39.8359356,24" id="Fill-11" fill="#000000" mask="url(#mask-4)"></path>
                            </g>
                            <path d="M122.283347,24 C126.2029,24 129.072114,21.479924 129.072114,17.4317169 L129.072114,4.88495575 L126.239267,4.88495575 L126.239267,17.3781655 C126.239267,19.5765296 124.922,21.1314701 122.283347,21.1314701 C119.644694,21.1314701 118.307058,19.5765296 118.307058,17.3781655 L118.307058,4.88495575 L115.49458,4.88495575 L115.49458,17.4317169 C115.49458,21.479924 118.338177,24 122.283347,24 Z M135.35801,23.7381501 L135.35801,4.88495575 L132.34078,4.88495575 L132.34078,23.7381501 L135.35801,23.7381501 Z" id="UI" fill="#000000" fill-rule="nonzero"></path>
                        </g>
                    </g>
                </g>
            </g>
        </g>
    </g>
</svg>