<?xml version="1.0" encoding="UTF-8"?>
<svg width="497px" height="46px" viewBox="0 0 497 46" version="1.1" xmlns="http://www.w3.org/2000/svg" xmlns:xlink="http://www.w3.org/1999/xlink">
    <title>pc-24-UI-T Edition</title>
    <defs>
        <linearGradient x1="176.146007%" y1="47.7409002%" x2="-103.736392%" y2="54.0448379%" id="linearGradient-1">
            <stop stop-color="#1ACAE1" offset="0%"></stop>
            <stop stop-color="#FFDD26" offset="9.14064098%"></stop>
            <stop stop-color="#E037FF" offset="29.8065974%"></stop>
            <stop stop-color="#43D0FF" offset="66.673381%"></stop>
            <stop stop-color="#21EF78" offset="77.2361962%"></stop>
            <stop stop-color="#FFF00D" offset="100%"></stop>
        </linearGradient>
        <path d="M344.608,40.24 L344.608,28.696 L359.948,28.696 L359.948,24.172 L344.608,24.172 L344.608,12.992 L361.248,12.992 L361.248,8.416 L339.772,8.416 L339.772,44.816 L361.508,44.816 L361.508,40.24 L344.608,40.24 Z M388.392,8.416 L388.392,23.288 C386.312,20.116 382.984,18.14 378.564,18.14 C371.336,18.14 365.408,24.12 365.408,31.816 C365.408,39.512 371.336,45.492 378.564,45.492 C382.984,45.492 386.312,43.516 388.392,40.344 L388.392,44.816 L392.916,44.816 L392.916,8.416 L388.392,8.416 Z M379.136,41.124 C373.936,41.124 369.932,37.12 369.932,31.816 C369.932,26.512 373.936,22.508 379.136,22.508 C384.388,22.508 388.392,26.512 388.392,31.816 C388.392,37.12 384.388,41.124 379.136,41.124 Z M402.068,14.084 C403.732,14.084 405.084,12.732 405.084,11.068 C405.084,9.404 403.732,8 402.068,8 C400.352,8 399,9.404 399,11.068 C399,12.732 400.352,14.084 402.068,14.084 Z M399.78,44.816 L404.304,44.816 L404.304,18.816 L399.78,18.816 L399.78,44.816 Z M425.364,23.184 L425.364,18.816 L418.448,18.816 L418.448,11.536 L413.924,12.888 L413.924,18.816 L408.776,18.816 L408.776,23.184 L413.924,23.184 L413.924,37.276 C413.924,43.776 417.564,45.856 425.364,44.816 L425.364,40.76 L423.622085,40.8364253 C420.161462,40.9616731 418.448,40.696 418.448,37.276 L418.448,23.184 L425.364,23.184 Z M433.164,14.084 C434.828,14.084 436.18,12.732 436.18,11.068 C436.18,9.404 434.828,8 433.164,8 C431.448,8 430.096,9.404 430.096,11.068 C430.096,12.732 431.448,14.084 433.164,14.084 Z M430.876,44.816 L435.4,44.816 L435.4,18.816 L430.876,18.816 L430.876,44.816 Z M454.536,45.492 C462.128,45.492 468.264,39.512 468.264,31.816 C468.264,24.12 462.128,18.14 454.536,18.14 C446.944,18.14 440.86,24.12 440.86,31.816 C440.86,39.512 446.944,45.492 454.536,45.492 Z M454.536,41.072 C449.388,41.072 445.384,37.068 445.384,31.816 C445.384,26.564 449.388,22.56 454.536,22.56 C459.736,22.56 463.74,26.564 463.74,31.816 C463.74,37.068 459.736,41.072 454.536,41.072 Z M486.568,18.14 C492.652,18.14 496.656,22.196 496.656,28.852 L496.656,44.816 L492.132,44.816 L492.132,29.112 C492.132,24.848 489.688,22.456 485.684,22.456 C481.524,22.456 478.144,24.9 478.144,31.036 L478.144,44.816 L473.62,44.816 L473.62,18.816 L478.144,18.816 L478.144,22.56 C480.068,19.492 482.928,18.14 486.568,18.14 Z M310.496,44.8 L310.496,12.976 L321.26,12.976 L321.26,8.4 L295,8.4 L295,12.976 L305.712,12.976 L305.712,44.8 L310.496,44.8 Z" id="path-2"></path>
        <polygon id="path-3" points="0 46 202.197309 46 202.197309 0 0 0"></polygon>
    </defs>
    <g id="product-page" stroke="none" stroke-width="1" fill="none" fill-rule="evenodd">
        <g id="realme-C53_PC_2560" transform="translate(-1041.000000, -21910.000000)">
            <g id="pc-24-Function" transform="translate(0.000000, 19620.000000)">
                <g id="pc-24-UI" transform="translate(680.000000, 2010.000000)">
                    <g id="pc-24-UI-T-Edition" transform="translate(361.000000, 280.000000)">
                        <g id="REdition" fill-rule="nonzero">
                            <use fill="#494949" xlink:href="#path-2"></use>
                            <use fill="url(#linearGradient-1)" xlink:href="#path-2"></use>
                        </g>
                        <g id="编组-2">
                            <g id="编组">
                                <path d="M120.042523,23.3827712 C120.042523,18.7614019 124.370328,15.6569942 128.412147,15.6569942 C133.323895,15.6569942 136.37533,19.079044 136.37533,24.5875053 L136.37533,45.5 L141.938493,45.5 L141.938493,23.9180776 C141.938493,19.9243803 144.172916,15.6569942 150.443673,15.6569942 C155.322218,15.6569942 158.474359,19.1625553 158.474359,24.5875053 L158.474359,45.5 L164.037523,45.5 L164.037523,24.5875053 C164.037523,15.8978773 159.088312,10.5 151.121579,10.5 C146.430282,10.5 142.372039,12.4917526 139.839303,15.9995113 C138.177208,13.322406 135.083148,10.5 129.42899,10.5 C125.608268,10.5 122.335705,11.8420721 120.042523,14.3142851 L120.042523,10.9687076 L114.479359,10.9687076 L114.479359,45.5 L120.042523,45.5 L120.042523,23.3827712 Z" id="Fill-1" fill="#000000"></path>
                                <path d="M29.5914212,24.1445873 C30.9196243,18.8095611 35.5762581,15.1418695 41.142932,15.1418695 C46.6550741,15.1418695 50.8894069,18.732038 51.8626719,24.1445873 L29.5914212,24.1445873 Z M57.4874703,27.3125231 C57.4543984,22.1048813 55.8043292,17.69756 52.7159668,14.5668137 C49.8108314,11.6219196 45.7485304,10 41.2774011,10 C31.143301,10 23.7879188,17.4789645 23.7879188,27.7833467 C23.7879188,38.2145098 30.9244359,45.5 41.142932,45.5 C47.9146312,45.5 53.1902655,42.6103979 56.39863,37.1431917 L56.6749139,36.672654 L51.9345577,33.6556676 L51.6316173,34.1674916 C49.1311723,38.3908344 45.7982827,40.3578129 41.142932,40.3578129 C34.6594175,40.3578129 29.6767796,35.5520781 29.3363085,29.0863131 L57.4874703,29.0863131 L57.4874703,27.3125231 Z" id="Fill-3" fill="#000000"></path>
                                <polygon id="Fill-5" fill="#000000" points="5.51568796 16.1423557 21.3100106 16.1423557 21.3100106 11 0 11 0 45.5 5.51568796 45.5"></polygon>
                                <path d="M174.301663,24.1445873 C175.629877,18.8095611 180.286551,15.1418695 185.852984,15.1418695 C191.365141,15.1418695 195.59919,18.732038 196.572463,24.1445873 L174.301663,24.1445873 Z M185.852984,45.5 C192.624709,45.5 197.900389,42.6103979 201.108781,37.1431917 L201.385099,36.672654 L196.64467,33.6556676 L196.341759,34.1674916 C193.841261,38.3908344 190.50831,40.3578129 185.852984,40.3578129 C179.369382,40.3578129 174.386701,35.5520781 174.046227,29.0863131 L202.197309,29.0863131 L202.197309,27.3125231 C202.164269,22.1048813 200.514154,17.69756 197.426086,14.5668137 C194.520925,11.6219196 190.458622,10 185.987775,10 C175.853235,10 168.497758,17.4789645 168.497758,27.7833467 C168.497758,38.2145098 175.6344,45.5 185.852984,45.5 L185.852984,45.5 Z" id="Fill-7" fill="#000000"></path>
                                <mask id="mask-4" fill="white">
                                    <use xlink:href="#path-3"></use>
                                </mask>
                                <g id="Clip-10"></g>
                                <polygon id="Fill-9" fill="#000000" mask="url(#mask-4)" points="101.594236 45.5 107.541216 45.5 107.541216 0 101.594236 0"></polygon>
                                <path d="M66.4649411,28.2831882 C66.4649411,21.2667589 71.5281201,15.9755124 78.2424322,15.9755124 C85.2067515,15.9755124 89.8860537,20.9217287 89.8860537,28.2831882 C89.8860537,35.6049806 85.2067515,40.5244558 78.2424322,40.5244558 C71.5281201,40.5244558 66.4649411,35.2618242 66.4649411,28.2831882 M78.5109382,46 C82.5334167,46 86.3609057,44.6700585 89.2148525,42.3151257 L89.2148525,45.4662258 L94.6560934,45.4662258 L94.6560934,11.0337742 L89.2148525,11.0337742 L89.2148525,14.2007538 C86.3100735,11.8360075 82.4806676,10.5 78.5109382,10.5 C73.5864853,10.5 69.1018211,12.3211586 65.8831993,15.6276239 C62.7061762,18.8915321 60.9565418,23.3859443 60.9565418,28.2831882 C60.9565418,33.1766527 62.7064637,37.6599493 65.8845093,40.9069934 C69.0986581,44.1912274 73.5826513,46 78.5109382,46" id="Fill-11" fill="#000000" mask="url(#mask-4)"></path>
                            </g>
                            <path d="M241.003008,46 C248.727886,46 254.382699,41.1698544 254.382699,33.4107908 L254.382699,9.36283186 L248.799562,9.36283186 L248.799562,33.3081505 C248.799562,37.5216818 246.203416,40.5019844 241.003008,40.5019844 C235.802601,40.5019844 233.166311,37.5216818 233.166311,33.3081505 L233.166311,9.36283186 L227.623318,9.36283186 L227.623318,33.4107908 C227.623318,41.1698544 233.227641,46 241.003008,46 Z M266.7713,45.498121 L266.7713,9.36283186 L260.824772,9.36283186 L260.824772,45.498121 L266.7713,45.498121 Z" id="UI" fill="#000000" fill-rule="nonzero"></path>
                        </g>
                    </g>
                </g>
            </g>
        </g>
    </g>
</svg>